<svg width="50" height="50" viewBox="0 0 50 50" fill="none" xmlns="http://www.w3.org/2000/svg">
<path d="M32.75 22.2051C32.75 26.5879 29.2912 29.75 25 29.75C20.7088 29.75 17.25 26.5879 17.25 22.2051C17.25 17.8056 20.7257 14.25 25 14.25C29.2743 14.25 32.75 17.8056 32.75 22.2051Z" fill="white" stroke="#489C24" stroke-width="0.5"/>
<path d="M10.2439 33.1834L10.25 33.1562V33.1285C10.25 32.7013 10.602 32.2229 11.4239 31.7366C12.2292 31.2603 13.4111 30.8226 14.8934 30.4517C17.8543 29.7109 21.9579 29.25 26.5 29.25C31.0421 29.25 35.1457 29.7109 38.1066 30.4517C39.5889 30.8226 40.7708 31.2603 41.5761 31.7366C42.398 32.2229 42.75 32.7013 42.75 33.1285C42.75 33.2508 42.7303 33.3057 42.7183 33.3264L42.7181 33.3267C42.713 33.3354 42.7091 33.3422 42.6813 33.3487C42.6416 33.358 42.5711 33.36 42.4531 33.3401C42.338 33.3207 42.1976 33.2842 42.0265 33.2331C41.8944 33.1936 41.7474 33.1464 41.5859 33.0945C40.9189 32.8802 40.0042 32.5864 38.8719 32.4325C36.0336 32.0467 31.84 32.5344 26.3411 37.064C23.6411 39.2879 21.2416 40.3368 19.1816 40.6252C17.1247 40.9131 15.3897 40.4454 14.0079 39.6064C12.6227 38.7653 11.5882 37.548 10.9469 36.3367C10.3006 35.1159 10.0734 33.9406 10.2439 33.1834Z" fill="white" stroke="#489C24" stroke-width="0.5"/>
</svg>
